<svg width="40" height="40" viewBox="0 0 40 40" fill="none" xmlns="http://www.w3.org/2000/svg">
<mask id="mask0_633_89" style="mask-type:alpha" maskUnits="userSpaceOnUse" x="0" y="0" width="40" height="40">
<rect width="40" height="40" fill="#D9D9D9"/>
</mask>
<g mask="url(#mask0_633_89)">
<path d="M11.5383 31.0893C10.4167 31.0893 9.46319 30.6967 8.67792 29.9114C7.89264 29.1264 7.5 28.1729 7.5 27.051C7.5 25.9293 7.89264 24.9759 8.67792 24.1906C9.46319 23.4053 10.4167 23.0127 11.5383 23.0127C12.6603 23.0127 13.6139 23.4053 14.3992 24.1906C15.1844 24.9759 15.5771 25.9293 15.5771 27.051C15.5771 28.1729 15.1844 29.1264 14.3992 29.9114C13.6139 30.6967 12.6603 31.0893 11.5383 31.0893ZM28.4617 31.0893C27.3397 31.0893 26.3861 30.6967 25.6008 29.9114C24.8156 29.1264 24.4229 28.1729 24.4229 27.051C24.4229 25.9293 24.8156 24.9759 25.6008 24.1906C26.3861 23.4053 27.3397 23.0127 28.4617 23.0127C29.5833 23.0127 30.5368 23.4053 31.3221 24.1906C32.1074 24.9759 32.5 25.9293 32.5 27.051C32.5 28.1729 32.1074 29.1264 31.3221 29.9114C30.5368 30.6967 29.5833 31.0893 28.4617 31.0893ZM20 16.9868C18.8783 16.9868 17.9249 16.5942 17.1396 15.8089C16.3543 15.0236 15.9617 14.0702 15.9617 12.9485C15.9617 11.8265 16.3543 10.8731 17.1396 10.0881C17.9249 9.3028 18.8783 8.91016 20 8.91016C21.1217 8.91016 22.0751 9.3028 22.8604 10.0881C23.6457 10.8731 24.0383 11.8265 24.0383 12.9485C24.0383 14.0702 23.6457 15.0236 22.8604 15.8089C22.0751 16.5942 21.1217 16.9868 20 16.9868Z" fill="#F2F2F2"/>
</g>
</svg>
