<svg width="397" height="265" viewBox="0 0 397 265" fill="none" xmlns="http://www.w3.org/2000/svg">
<path d="M387 76.5C392.523 76.5 397.067 72.0036 396.348 66.5279C394.164 49.9189 386.569 34.3818 374.594 22.4063C360.247 8.0598 340.789 1.53178e-06 320.5 0C300.211 -1.53178e-06 280.753 8.05979 266.406 22.4063C254.431 34.3818 246.836 49.9189 244.652 66.5279C243.933 72.0036 248.477 76.5 254 76.5L320.5 76.5H387Z" fill="#F2F2F2"/>
<path d="M378 76.5C378 66.5544 373.996 57.0161 366.87 49.9835C359.744 42.9509 350.078 39 340 39C329.922 39 320.256 42.9509 313.13 49.9835C306.004 57.0161 302 66.5544 302 76.5L340 76.5H378Z" fill="#5A84FF"/>
<path d="M143 76.5C148.523 76.5 153.067 72.0036 152.348 66.5279C150.164 49.9189 142.569 34.3818 130.594 22.4063C116.247 8.0598 96.7891 1.53178e-06 76.5 0C56.2109 -1.53178e-06 36.7529 8.05979 22.4063 22.4063C10.4309 34.3818 2.83581 49.9189 0.652439 66.5279C-0.0673849 72.0036 4.47715 76.5 10 76.5L76.5 76.5H143Z" fill="#F2F2F2"/>
<mask id="path-4-inside-1_226_577" fill="white">
<path d="M79 144.5C73.4772 144.5 68.9568 148.986 69.4145 154.489C71.7676 182.79 84.062 209.475 104.294 229.706C126.892 252.304 157.541 265 189.5 265C221.459 265 252.108 252.305 274.706 229.706C294.938 209.475 307.232 182.79 309.586 154.489C310.043 148.986 305.523 144.5 300 144.5L189.5 144.5L79 144.5Z"/>
</mask>
<path d="M79 144.5C73.4772 144.5 68.9568 148.986 69.4145 154.489C71.7676 182.79 84.062 209.475 104.294 229.706C126.892 252.304 157.541 265 189.5 265C221.459 265 252.108 252.305 274.706 229.706C294.938 209.475 307.232 182.79 309.586 154.489C310.043 148.986 305.523 144.5 300 144.5L189.5 144.5L79 144.5Z" fill="#789AFF" stroke="#F2F2F2" stroke-width="20" mask="url(#path-4-inside-1_226_577)"/>
<path d="M129 76.5C129 66.5544 124.996 57.0161 117.87 49.9835C110.744 42.9509 101.078 39 91 39C80.9218 39 71.2563 42.9509 64.1299 49.9835C57.0036 57.0161 53 66.5544 53 76.5L91 76.5H129Z" fill="#5A84FF"/>
</svg>
