<svg width="372" height="296" viewBox="0 0 372 296" fill="none" xmlns="http://www.w3.org/2000/svg">
<rect x="94.4729" y="277.104" width="179.489" height="18.8936" rx="9.44681" fill="#06034C"/>
<mask id="path-2-inside-1_226_625" fill="white">
<path d="M10 74.7875C4.47718 74.7875 -0.068872 79.2848 0.667364 84.7583C2.84011 100.912 10.2507 116.016 21.9047 127.67C35.93 141.695 54.9524 149.575 74.7872 149.575C94.622 149.575 113.644 141.695 127.67 127.67C139.324 116.016 146.734 100.912 148.907 84.7583C149.643 79.2848 145.097 74.7875 139.574 74.7875L74.7872 74.7875L10 74.7875Z"/>
</mask>
<path d="M10 74.7875C4.47718 74.7875 -0.068872 79.2848 0.667364 84.7583C2.84011 100.912 10.2507 116.016 21.9047 127.67C35.93 141.695 54.9524 149.575 74.7872 149.575C94.622 149.575 113.644 141.695 127.67 127.67C139.324 116.016 146.734 100.912 148.907 84.7583C149.643 79.2848 145.097 74.7875 139.574 74.7875L74.7872 74.7875L10 74.7875Z" stroke="white" stroke-width="10" mask="url(#path-2-inside-1_226_625)"/>
<mask id="path-3-inside-2_226_625" fill="white">
<path d="M232 74.7875C226.477 74.7875 221.931 79.2848 222.667 84.7583C224.84 100.912 232.25 116.016 243.904 127.67C257.93 141.695 276.952 149.575 296.787 149.575C316.622 149.575 335.644 141.695 349.67 127.67C361.324 116.016 368.734 100.912 370.907 84.7583C371.643 79.2848 367.097 74.7875 361.574 74.7875L296.787 74.7875L232 74.7875Z"/>
</mask>
<path d="M232 74.7875C226.477 74.7875 221.931 79.2848 222.667 84.7583C224.84 100.912 232.25 116.016 243.904 127.67C257.93 141.695 276.952 149.575 296.787 149.575C316.622 149.575 335.644 141.695 349.67 127.67C361.324 116.016 368.734 100.912 370.907 84.7583C371.643 79.2848 367.097 74.7875 361.574 74.7875L296.787 74.7875L232 74.7875Z" stroke="white" stroke-width="10" mask="url(#path-3-inside-2_226_625)"/>
</svg>
