<svg width="1512" height="695" viewBox="0 0 1512 695" fill="none" xmlns="http://www.w3.org/2000/svg">
<path d="M898.169 0L441.663 0C439.831 0 438.145 1.00269 437.27 2.61312L282.516 287.469C280.706 290.8 283.118 294.856 286.909 294.856L667.611 294.856C671.317 294.856 673.735 298.747 672.094 302.07L551.316 546.637C549.674 549.96 552.093 553.851 555.799 553.851L725.355 553.851C728.62 553.851 731.009 556.929 730.199 560.091L680.046 755.865C678.794 760.751 684.742 764.206 688.367 760.699L1012.62 446.892C1015.85 443.767 1013.64 438.299 1009.14 438.299H843.841C840.135 438.299 837.717 434.408 839.358 431.085L946.362 214.41C948.003 211.087 945.585 207.196 941.879 207.196L742.654 207.196C738.385 207.196 736.079 202.19 738.854 198.946L901.969 8.25006C904.744 5.00568 902.438 0 898.169 0Z" fill="#06007B"/>
<path d="M345.168 120.284L-87.752 109.079C-89.6306 109.031 -91.3778 110.039 -92.2749 111.691L-246.987 396.469C-248.797 399.8 -246.385 403.856 -242.593 403.856L135.917 403.856C140.08 403.856 142.42 408.646 139.861 411.929L-4.33246 596.926C-6.89175 600.21 -4.552 605 -0.38887 605H248.14C251.636 605 254.053 608.497 252.817 611.767L79.4369 1070.58C77.9117 1074.62 81.8717 1078.56 85.9014 1077.02L629.626 868.909C631.118 868.338 632.247 867.088 632.665 865.547L710.79 577.308C711.652 574.129 709.258 571 705.964 571L529.508 571C525.811 571 523.393 567.127 525.016 563.805L642.484 323.391C644.107 320.069 641.689 316.196 637.992 316.196H251.084C247.252 316.196 244.845 312.062 246.735 308.729L349.388 127.75C351.25 124.466 348.942 120.382 345.168 120.284Z" fill="#06007B"/>
<path d="M-48.5 429H107L-24.5 593.5V630.5H228.5L160.5 789H-48.5V429Z" fill="#06007B" stroke="#06007B"/>
<path d="M1236.23 458.5L1326 172H1517.5L1545 765L1127 789.5L1389 458.5H1236.23Z" fill="#06007B"/>
<path d="M781 186.5L937 14.5H1252L1142.5 124H1320.66L1210.05 482.5L1351.21 474L1164 716H760.5L1049 427.5H863L975 186.5H781Z" fill="#06007B"/>
</svg>
