<svg width="50" height="37" viewBox="0 0 50 37" fill="none" xmlns="http://www.w3.org/2000/svg">
<path d="M0.326854 37C0.146072 37 0 36.8554 0 36.6765V0.323532C0 0.144587 0.146072 0 0.326854 0H37.0531C37.2339 0 37.38 0.144587 37.38 0.323532V36.383C37.38 36.6335 37.1066 36.7881 36.8868 36.6636C33.3767 34.6637 30.5016 31.6961 28.633 28.1286C27.1217 25.2469 26.2684 21.9715 26.2684 18.5C26.2684 15.3219 26.9828 12.31 28.2613 9.6129C28.3915 9.33804 28.1022 9.05459 27.826 9.18486C25.0694 10.489 21.9817 11.2177 18.7232 11.2177C15.6933 11.2177 12.8109 10.5878 10.2048 9.45113C9.93 9.33088 9.64798 9.60574 9.77236 9.87774C10.9756 12.5061 11.6438 15.4264 11.6438 18.5C11.6438 21.8441 10.8513 25.0064 9.44261 27.8108C7.48872 31.7032 4.346 34.9085 0.484496 36.9613C0.43677 36.9871 0.381812 37 0.326854 37Z" fill="#F2F2F2"/>
<path d="M32.7794 36.8526C32.7794 36.9342 32.7129 37.0015 32.629 37.0015H4.63379V36.907C6.21021 33.9508 8.705 31.5515 11.7436 30.0813C13.8522 29.0606 16.2241 28.4866 18.7319 28.4866C21.4277 28.4866 23.9674 29.1494 26.1931 30.3204C28.9743 31.782 31.2666 34.0367 32.7606 36.7796C32.7722 36.8011 32.7794 36.8268 32.7794 36.8512V36.8526Z" fill="#F2F2F2"/>
<path d="M45.1811 37.0001C47.8425 37.0001 50 34.8645 50 32.2301C50 29.5958 47.8425 27.4602 45.1811 27.4602C42.5196 27.4602 40.3621 29.5958 40.3621 32.2301C40.3621 34.8645 42.5196 37.0001 45.1811 37.0001Z" fill="#F2F2F2"/>
</svg>
