<svg width="412" height="645" viewBox="0 0 412 645" fill="none" xmlns="http://www.w3.org/2000/svg">
<path d="M-18.0001 645C-18.0001 622.388 -12.2061 212.186 -0.949026 191.295C10.308 170.404 26.8078 151.422 47.6081 135.433C68.4085 119.444 93.102 106.76 120.279 98.1071C147.456 89.4538 176.584 85 206 85C235.416 85 264.544 89.4538 291.721 98.1071C318.898 106.76 343.592 119.444 364.392 135.433C385.192 151.422 401.692 170.404 412.949 191.295C424.206 212.186 430 622.388 430 645L-18.0001 645Z" fill="#789AFF"/>
<ellipse cx="242.817" cy="149.43" rx="112.974" ry="111.546" fill="#789AFF"/>
<ellipse cx="110.659" cy="111.546" rx="112.974" ry="111.546" fill="#789AFF"/>
<ellipse cx="311.026" cy="225.197" rx="112.974" ry="111.546" fill="#789AFF"/>
<ellipse cx="161.816" cy="225.197" rx="112.974" ry="111.546" fill="#789AFF"/>
<ellipse cx="50.9736" cy="225.197" rx="112.974" ry="111.546" fill="#789AFF"/>
</svg>
