<svg width="412" height="618" viewBox="0 0 412 618" fill="none" xmlns="http://www.w3.org/2000/svg">
<path d="M-18 618C-18 598.134 -29.2571 277.354 -18 259C-6.74298 240.646 127.2 283.048 148 269C168.8 254.952 277.323 177.911 304.5 170.309C331.677 162.706 176.584 126 206 126C235.416 126 264.544 129.913 291.721 137.516C318.898 145.118 333.7 185.952 354.5 200C375.3 214.048 401.692 201.033 412.949 219.388C424.206 237.742 430 598.134 430 618L-18 618Z" fill="#06007B"/>
<path d="M466.217 3.6795e-05L-6.0491 8.5L-21.5009 193L68.9998 193L-16.5 257L331.715 418.995L200 574.501L568 339.402L416.537 339.402L546.5 190.098L368.591 190.098L466.217 3.6795e-05Z" fill="#06007B"/>
</svg>
